<?xml version="1.0" encoding="utf-8"?>
<!-- Generator: Adobe Illustrator 16.0.0, SVG Export Plug-In . SVG Version: 6.00 Build 0)  -->
<!DOCTYPE svg PUBLIC "-//W3C//DTD SVG 1.1//EN" "http://www.w3.org/Graphics/SVG/1.1/DTD/svg11.dtd">
<svg version="1.1" id="Layer_1" xmlns="http://www.w3.org/2000/svg" xmlns:xlink="http://www.w3.org/1999/xlink" x="0px" y="0px"
	 width="128px" height="128px" viewBox="0 0 128 128" enable-background="new 0 0 128 128" xml:space="preserve">
<g>
	<g>
		<g>
			<g>
				<polygon fill="#282D33" points="2.364,125.539 8.797,103.469 11.351,100.881 14.198,103.689 12.355,105.559 8.262,119.598 
					22.071,115.465 23.909,113.603 26.757,116.411 24.199,119.004 				"/>
			</g>
			<g>
				<path fill="#282D33" d="M97.227,18.485l10.844,10.984l-82.565,83.627l-10.845-10.98L97.227,18.485 M97.227,12.882L9.128,102.115
					l16.377,16.584l88.096-89.23L97.227,12.882L97.227,12.882z"/>
			</g>
			<g>
				
					<rect x="60.5" y="5.257" transform="matrix(0.7116 0.7026 -0.7026 0.7116 63.4405 -25.269)" fill="#282D33" width="4" height="118.771"/>
			</g>
			<g>
				<path fill="#282D33" d="M119.582,22.411l-2.848-2.81l4.807-4.869l-9.766-9.888l-4.772,4.831l-2.846-2.812l5.067-5.129
					c0.636-0.646,1.506-1.004,2.446-1.004c0,0,0.001,0,0.002,0c1.061,0,2.124,0.464,2.916,1.271l9.806,9.929
					c1.554,1.572,1.663,3.923,0.25,5.352L119.582,22.411z"/>
			</g>
			<g>
				<polygon fill="#282D33" points="110.736,35.217 107.891,32.407 116.195,23.995 102.63,10.256 94.361,18.63 91.516,15.82 
					102.63,4.563 121.816,23.995 				"/>
			</g>
		</g>
	</g>
	<g>
		<g>
			<path fill="#282D33" d="M29.87,60.161L16.005,46.116H7.361V0h52.208v46.116H29.87V60.161z M11.361,42.116h6.316l8.193,8.299
				v-8.299h29.699V4H11.361V42.116z"/>
		</g>
	</g>
	<g>
		<g>
			<path fill="#282D33" d="M123.564,128H71.357V81.884h29.697V67.839l13.865,14.045h8.645V128z M75.357,124h44.207V85.884h-6.316
				l-8.193-8.299v8.299H75.357V124z"/>
		</g>
	</g>
	<g>
		<g>
			<path fill="#282D33" d="M32.169,36.384c-7.34,0-13.312-6.037-13.312-13.458S24.829,9.468,32.169,9.468
				s13.312,6.037,13.312,13.458S39.51,36.384,32.169,36.384z M32.169,13.468c-5.135,0-9.312,4.243-9.312,9.458
				s4.177,9.458,9.312,9.458s9.312-4.243,9.312-9.458S37.304,13.468,32.169,13.468z"/>
		</g>
		<g>
			
				<rect x="34.849" y="29.171" transform="matrix(0.7026 0.7116 -0.7116 0.7026 34.0038 -19.0196)" fill="#282D33" width="9.816" height="4"/>
		</g>
	</g>
	<g>
		<polygon fill="#282D33" points="86.333,117.879 82.858,115.898 97.979,89.369 113.099,115.898 109.624,117.879 97.979,97.447 		
			"/>
	</g>
	<g>
		<rect x="88.713" y="108.068" fill="#282D33" width="18.529" height="4"/>
	</g>
</g>
</svg>
