<svg xmlns="http://www.w3.org/2000/svg" viewBox="0 0 48 48"><title>26-Question</title><g id="_26-Question" data-name="26-Question"><path d="M38,48H17a1,1,0,0,1-1-1V39c0-1.841-.857-1.989-1.028-2H9a3.888,3.888,0,0,1-4-4V29.749A3.581,3.581,0,0,0,3,29a2.916,2.916,0,0,1-3-3,1.006,1.006,0,0,1,.124-.483L5,16.681V15A15.017,15.017,0,0,1,20,0V2A13.015,13.015,0,0,0,7,15v1.938a1.006,1.006,0,0,1-.124.483l-4.855,8.8A.878.878,0,0,0,3,27a5.771,5.771,0,0,1,3.663,1.524A1,1,0,0,1,7,29.272V33a1.883,1.883,0,0,0,2,2h6c1.038,0,3,.836,3,4v7H37V40a1,1,0,0,1,1-1c2.892,0,3.856-3.513,4-4.11V32h2v3a1,1,0,0,1-.02.2c-.364,1.823-1.854,5.121-4.98,5.712V47A1,1,0,0,1,38,48Z"/><path d="M32,32A16,16,0,1,1,48,16,16.019,16.019,0,0,1,32,32ZM32,2A14,14,0,1,0,46,16,14.015,14.015,0,0,0,32,2Z"/><path d="M32,21H30V17a1.959,1.959,0,0,1,2-2h3a1,1,0,0,0,1-1V10a1,1,0,0,0-1-1H29a1,1,0,0,0-1,1v4H26V10a3,3,0,0,1,3-3h6a3,3,0,0,1,3,3v4a3,3,0,0,1-3,3H32Z"/><rect x="30" y="23" width="2" height="2"/></g></svg>