<svg xmlns="http://www.w3.org/2000/svg" width="48.001" height="48.002" viewBox="0 0 48.001 48.002">
  <g>
    <path d="M19.372,3.36a4.141,4.141,0,0,0-3.465.828A4.09,4.09,0,0,0,14.39,7.376v.678a.728.728,0,1,0,1.455,0V7.376a2.653,2.653,0,1,1,4.023,2.27,4.218,4.218,0,0,0-2.1,3.6.727.727,0,1,0,1.454,0,2.777,2.777,0,0,1,1.4-2.355,4.108,4.108,0,0,0-1.25-7.529Z" fill="#1a171b"/>
    <path d="M18.5,15.083a.726.726,0,0,0-.727.727V16.6a.727.727,0,1,0,1.454,0V15.81A.726.726,0,0,0,18.5,15.083Z" fill="#1a171b"/>
    <path d="M34.751,1.458h5.734A2.185,2.185,0,0,1,42.667,3.64V6.486a.728.728,0,0,0,1.456,0V3.64A3.641,3.641,0,0,0,40.486,0H34.752a.728.728,0,0,0,0,1.455Z" fill="#1a171b"/>
    <path d="M47.927,41.151c0-.006,0-.012,0-.02l-3.8-7.6V9.392a.729.729,0,0,0-.728-.727H32.567V.727A.728.728,0,0,0,31.84,0H4.605a.728.728,0,0,0-.727.727V25.034a.73.73,0,0,0,.727.728.74.74,0,0,0,.45-.156l6.4-5.041H20.28V28.59a.727.727,0,0,0,.727.729h0l15.6-.02,4.68,3.672H5.334V27.944a.728.728,0,0,0-1.455,0v5.582l-3.8,7.6c0,.008,0,.014,0,.02A.715.715,0,0,0,0,41.457v2.908A3.64,3.64,0,0,0,3.636,48H44.364A3.641,3.641,0,0,0,48,44.365V41.457A.715.715,0,0,0,47.927,41.151ZM11.2,19.112a.727.727,0,0,0-.45.156l-5.417,4.27V1.458h25.78V19.112ZM37.31,28a.729.729,0,0,0-.449-.154h0l-15.125.018v-7.3H31.841a.728.728,0,0,0,.727-.729V10.122h10.1V32.206ZM5.056,34.426H42.944L46.1,40.731H1.9Zm41.49,9.94a2.185,2.185,0,0,1-2.182,2.182H3.636a2.185,2.185,0,0,1-2.182-2.182V42.184H46.545v2.182Z" fill="#1a171b"/>
    <path d="M20.606,45.094h6.788a.728.728,0,1,0,0-1.456H20.606a.728.728,0,0,0,0,1.456Z" fill="#1a171b"/>
  </g>
</svg>
