<svg xmlns="http://www.w3.org/2000/svg" viewBox="0 0 64 64"><defs><style>.cls-1{fill:#272835;}</style></defs><title>23-Customer Support Question</title><g id="_23-Customer_Support_Question" data-name="23-Customer Support Question"><path class="cls-1" d="M24.89,46.55a1,1,0,0,0-.5-.47l-6.63-2.87-.54-1.67a7,7,0,0,0,2-2.54H21a2,2,0,0,0,2-2V33a1,1,0,0,0-1-1H20V27a1,1,0,0,0-.29-.71A9.73,9.73,0,0,0,13,24a9.73,9.73,0,0,0-6.71,2.29A1,1,0,0,0,6,27v8a8.2,8.2,0,0,0,2.77,6.54l-.54,1.67L1.6,46.08a1,1,0,0,0-.5.47l-1,2A1,1,0,0,0,0,49V64H2V49.24l.73-1.46,6-2.61L12,48.41V54h2V48.41l3.25-3.25,6,2.61L24,49.24V64h2V49a1,1,0,0,0-.11-.45ZM20,35V34h1v3H19.81A10.49,10.49,0,0,0,20,35ZM8,27.47A8.3,8.3,0,0,1,13,26a8.3,8.3,0,0,1,5,1.47v4.39c-.5-.13-1-.38-1-.86a1,1,0,0,0-1-1H10a1,1,0,0,0-1,1c0,.47-.5.72-1,.86Zm5,19.12-2.84-2.84.38-1.19a7,7,0,0,0,4.9,0l.38,1.19ZM13,41c-3.69,0-5-3.23-5-6V33.91A3.55,3.55,0,0,0,10.82,32h4.36A3.55,3.55,0,0,0,18,33.91V35a8.45,8.45,0,0,1-.24,2H13v2h3.91A4.45,4.45,0,0,1,13,41Z"/><rect class="cls-1" x="5" y="58" width="2" height="6"/><rect class="cls-1" x="19" y="58" width="2" height="6"/><path class="cls-1" d="M61,0H29a3,3,0,0,0-3,3V35a1,1,0,0,0,1.55.83L36.3,30H61a3,3,0,0,0,3-3V3A3,3,0,0,0,61,0Zm1,27a1,1,0,0,1-1,1H36a1,1,0,0,0-.55.17l-7.45,5V3a1,1,0,0,1,1-1H61a1,1,0,0,1,1,1Z"/><path class="cls-1" d="M49.51,20.94A6,6,0,0,0,51,17V13a6,6,0,0,0-12,0v4a6,6,0,0,0,8.68,5.36A4.76,4.76,0,0,0,50,23h2V21H50A2.39,2.39,0,0,1,49.51,20.94ZM49,17a4,4,0,0,1-1.3,2.93,9,9,0,0,1-1.81-2.38l-1.79.9a11.54,11.54,0,0,0,1.75,2.46A4,4,0,0,1,41,17V13a4,4,0,0,1,8,0Z"/><path class="cls-1" d="M30,5V9h2V6h3V4H31A1,1,0,0,0,30,5Z"/><rect class="cls-1" x="30" y="11" width="2" height="2"/></g></svg>